<svg xmlns="http://www.w3.org/2000/svg" version="1.1" xmlns:xlink="http://www.w3.org/1999/xlink"
    xmlns:svgjs="http://svgjs.dev/svgjs" width="2000" height="1252" viewBox="0 0 2000 1252">
    <g transform="matrix(1,0,0,1,-1.2121212121212466,-2.01935483870966)">
        <svg viewBox="0 0 396 248" data-background-color="#ffffff"
            preserveAspectRatio="xMidYMid meet" height="1252" width="2000"
            xmlns="http://www.w3.org/2000/svg" xmlns:xlink="http://www.w3.org/1999/xlink">
            <g id="tight-bounds" transform="matrix(1,0,0,1,0.2400000000000091,0.4000000000000057)">
                <svg viewBox="0 0 395.52 247.2" height="247.2" width="395.52">
                    <g>
                        <svg></svg>
                    </g>
                    <g>
                        <svg viewBox="0 0 395.52 247.2" height="247.2" width="395.52">
                            <g transform="matrix(1,0,0,1,121.37519999999999,47.215199999999996)">
                                <svg viewBox="0 0 152.7696 152.7696" height="152.7696"
                                    width="152.7696">
                                    <g>
                                        <svg viewBox="0 0 152.7696 152.7696" height="152.7696"
                                            width="152.7696">
                                            <g>
                                                <svg viewBox="0 0 152.7696 152.7696"
                                                    height="152.7696" width="152.7696">
                                                    <g id="textblocktransform">
                                                        <svg viewBox="0 0 152.7696 152.7696"
                                                            height="152.7696" width="152.7696"
                                                            id="textblock">
                                                            <g>
                                                                <svg viewBox="0 0 152.7696 152.7696"
                                                                    height="152.7696"
                                                                    width="152.7696">
                                                                    <g
                                                                        transform="matrix(1,0,0,1,40.3766599602812,45.062978318704104)">
                                                                        <svg
                                                                            viewBox="0 0 72.01628007943759 62.64364336259179"
                                                                            height="62.64364336259179"
                                                                            width="72.01628007943759">
                                                                            <g id="icon-0">
                                                                                <svg
                                                                                    xmlns="http://www.w3.org/2000/svg"
                                                                                    xmlns:xlink="http://www.w3.org/1999/xlink"
                                                                                    version="1.1"
                                                                                    x="0" y="0"
                                                                                    viewBox="15.1 17.3 75.30000000000001 65.5"
                                                                                    style="enable-background:new 0 0 100 100;"
                                                                                    xml:space="preserve"
                                                                                    height="62.64364336259179"
                                                                                    width="72.01628007943759"
                                                                                    class="icon-jxe-0"
                                                                                    data-fill-palette-color="accent"
                                                                                    id="jxe-0"><g fill="#3294f8" data-fill-palette-color="accent"><path d="M35.3 70.7L48.5 56 61.7 70.7C63.6 72.8 66.3 74 69.1 74H75.1L72 77.3 77.8 82.8 90.3 69.5 77.9 56.2 72.1 61.7 76.2 66H69.2C68.6 66 68.1 65.8 67.7 65.3L53.9 50 67.7 34.7C68.1 34.3 68.6 34 69.2 34H76.2L72.1 38.3 77.9 43.8 90.4 30.5 77.9 17.3 72.1 22.8 75.2 26.1H69.2C66.4 26.1 63.7 27.3 61.8 29.4L48.5 44 35.3 29.3C33.4 27.2 30.7 26 27.9 26H15.1V34H27.8C28.4 34 28.9 34.2 29.3 34.7L43.1 50 29.3 65.3C28.9 65.7 28.4 66 27.8 66H15.1V74H27.8C30.7 74 33.4 72.8 35.3 70.7" fill="#3294f8" data-fill-palette-color="accent"></path></g></svg>
                                                                            </g>
                                                                        </svg>
                                                                    </g>
                                                                    <g id="text-0">
                                                                        <path
                                                                            d="M14.517 56.848v0c-0.167 0.521-0.431 0.874-0.792 1.059-0.368 0.184-0.805 0.194-1.312 0.031v0l-7.321-2.349c-0.508-0.163-0.852-0.421-1.033-0.773-0.181-0.352-0.195-0.769-0.04-1.251v0c0.159-0.495 0.413-0.829 0.763-1.004 0.35-0.175 0.779-0.181 1.287-0.018v0l1.074 0.345-0.066 0.205c-0.772-0.434-1.293-1.003-1.562-1.707-0.274-0.712-0.297-1.524-0.07-2.434v0c0.085-0.353 0.257-0.589 0.518-0.706 0.256-0.126 0.614-0.122 1.073 0.01v0c0.438 0.112 0.749 0.305 0.934 0.58 0.183 0.281 0.225 0.664 0.126 1.149v0l-0.111 0.481c-0.181 0.81-0.14 1.466 0.122 1.967 0.263 0.501 0.759 0.868 1.488 1.102v0l3.836 1.231c0.508 0.163 0.858 0.423 1.052 0.779 0.188 0.355 0.199 0.789 0.034 1.303z"
                                                                            fill="#8284fa"
                                                                            data-fill-palette-color="primary"></path>
                                                                        <path
                                                                            d="M20.65 43.182v0c-0.396 0.671-0.881 1.198-1.456 1.582-0.581 0.38-1.182 0.585-1.802 0.615-0.624 0.037-1.216-0.11-1.776-0.44v0c-0.671-0.396-1.099-0.882-1.282-1.458-0.19-0.58-0.135-1.313 0.165-2.199 0.291-0.884 0.816-1.97 1.576-3.259v0l0.583-0.989 1.458 0.858-0.573 0.972c-0.371 0.63-0.641 1.161-0.808 1.594-0.158 0.43-0.205 0.779-0.142 1.047 0.062 0.259 0.237 0.473 0.526 0.643v0c0.347 0.205 0.704 0.252 1.07 0.143 0.366-0.11 0.684-0.394 0.955-0.853v0c0.212-0.359 0.315-0.73 0.311-1.114 0.002-0.38-0.098-0.736-0.298-1.068-0.201-0.332-0.486-0.608-0.858-0.827v0l-2.146-1.265c-0.548-0.323-1.009-0.428-1.384-0.316-0.375 0.112-0.738 0.465-1.089 1.06v0c-0.201 0.341-0.375 0.731-0.522 1.168-0.156 0.44-0.279 0.95-0.368 1.532v0c-0.036 0.344-0.149 0.602-0.338 0.777-0.196 0.17-0.418 0.258-0.666 0.261-0.243 0.008-0.473-0.053-0.691-0.181-0.218-0.128-0.393-0.315-0.526-0.56-0.133-0.245-0.165-0.541-0.095-0.889v0c0.108-0.722 0.271-1.368 0.487-1.937 0.214-0.564 0.449-1.064 0.706-1.5v0c0.566-0.96 1.17-1.662 1.814-2.109 0.641-0.455 1.345-0.667 2.112-0.635 0.761 0.028 1.595 0.309 2.501 0.844v0l4.142 2.441c0.459 0.271 0.75 0.592 0.871 0.965 0.115 0.369 0.048 0.766-0.202 1.19v0c-0.25 0.424-0.566 0.678-0.949 0.762-0.389 0.08-0.812-0.015-1.271-0.285v0l-0.689-0.406 0.193-0.065c0.379 0.326 0.647 0.699 0.805 1.117 0.16 0.428 0.217 0.877 0.169 1.349-0.054 0.468-0.225 0.946-0.513 1.435z"
                                                                            fill="#8284fa"
                                                                            data-fill-palette-color="primary"></path>
                                                                        <path
                                                                            d="M29.064 31.754v0c-0.377 0.377-0.766 0.563-1.167 0.558-0.406-0.01-0.797-0.203-1.174-0.58v0l-5.437-5.436c-0.377-0.377-0.565-0.764-0.565-1.16 0-0.396 0.179-0.773 0.536-1.131v0c0.367-0.367 0.747-0.549 1.138-0.543 0.391 0.005 0.776 0.196 1.153 0.572v0l0.877 0.877-0.674-0.34c-0.266-0.739-0.302-1.476-0.109-2.211 0.193-0.735 0.585-1.397 1.174-1.986v0c0.604-0.604 1.215-0.983 1.834-1.139 0.619-0.164 1.259-0.109 1.921 0.167 0.657 0.271 1.343 0.763 2.059 1.479v0l3.472 3.472c0.377 0.377 0.57 0.768 0.58 1.174 0.005 0.401-0.184 0.793-0.566 1.174v0c-0.367 0.367-0.751 0.549-1.152 0.544-0.406-0.01-0.797-0.203-1.174-0.58v0l-3.371-3.37c-0.517-0.517-0.986-0.797-1.407-0.841-0.416-0.039-0.819 0.138-1.21 0.529v0c-0.488 0.488-0.725 1.029-0.71 1.624 0.015 0.594 0.278 1.148 0.79 1.66v0l3.153 3.153c0.788 0.788 0.797 1.566 0.029 2.334z"
                                                                            fill="#8284fa"
                                                                            data-fill-palette-color="primary"></path>
                                                                        <path
                                                                            d="M44.26 19.831v0c-0.802 0.457-1.618 0.666-2.45 0.628-0.829-0.047-1.619-0.336-2.37-0.867-0.755-0.538-1.414-1.302-1.98-2.294v0c-0.565-0.992-0.881-1.94-0.948-2.846-0.071-0.911 0.087-1.733 0.472-2.464 0.388-0.74 0.983-1.339 1.785-1.795v0c0.73-0.416 1.476-0.605 2.238-0.567 0.758 0.032 1.398 0.273 1.921 0.723v0l-0.213 0.121-2.542-4.462c-0.271-0.475-0.357-0.902-0.258-1.281 0.101-0.388 0.384-0.714 0.847-0.978v0c0.451-0.257 0.873-0.332 1.264-0.225 0.388 0.101 0.717 0.39 0.988 0.865v0l6.099 10.707c0.264 0.463 0.347 0.892 0.249 1.286-0.101 0.388-0.378 0.711-0.829 0.967v0c-0.451 0.257-0.87 0.33-1.256 0.22-0.395-0.113-0.724-0.402-0.988-0.865v0l-0.725-1.273 0.63 0.608c0.174 0.719 0.08 1.425-0.28 2.118-0.36 0.693-0.912 1.251-1.654 1.674zM43.893 17.22v0c0.416-0.237 0.719-0.539 0.91-0.908 0.182-0.371 0.249-0.806 0.201-1.306-0.045-0.493-0.244-1.049-0.596-1.666v0c-0.521-0.914-1.095-1.48-1.722-1.697-0.621-0.22-1.24-0.155-1.858 0.197v0c-0.398 0.227-0.697 0.523-0.897 0.889-0.201 0.366-0.272 0.792-0.216 1.278 0.054 0.496 0.256 1.05 0.605 1.662v0c0.521 0.914 1.095 1.488 1.723 1.72 0.634 0.229 1.251 0.172 1.85-0.169z"
                                                                            fill="#8284fa"
                                                                            data-fill-palette-color="primary"></path>
                                                                        <path
                                                                            d="M61.088 13.105v0c-1.106 0.283-2.121 0.313-3.045 0.091-0.933-0.227-1.728-0.687-2.385-1.379-0.652-0.701-1.119-1.604-1.402-2.71v0c-0.21-0.821-0.274-1.595-0.192-2.321 0.084-0.72 0.307-1.377 0.671-1.97 0.363-0.594 0.848-1.099 1.453-1.515 0.613-0.418 1.329-0.732 2.151-0.942v0c1.106-0.283 2.125-0.311 3.057-0.084 0.924 0.222 1.718 0.675 2.38 1.36 0.66 0.678 1.132 1.569 1.414 2.675v0c0.215 0.841 0.277 1.622 0.187 2.343-0.089 0.728-0.311 1.388-0.667 1.981-0.355 0.599-0.842 1.108-1.461 1.527-0.613 0.418-1.333 0.733-2.161 0.944zM60.481 10.731v0c0.463-0.119 0.836-0.33 1.118-0.635 0.273-0.31 0.453-0.712 0.537-1.206 0.087-0.488 0.042-1.076-0.134-1.765v0c-0.261-1.02-0.665-1.717-1.212-2.091-0.541-0.377-1.155-0.477-1.844-0.301v0c-0.444 0.114-0.81 0.32-1.101 0.62-0.29 0.3-0.472 0.692-0.545 1.177-0.079 0.493-0.031 1.08 0.144 1.762v0c0.261 1.02 0.663 1.724 1.208 2.114 0.551 0.388 1.161 0.497 1.829 0.325z"
                                                                            fill="#8284fa"
                                                                            data-fill-palette-color="primary"></path>
                                                                        <path
                                                                            d="M74.093 11.314v0c-0.532-0.026-0.932-0.188-1.197-0.489-0.266-0.307-0.386-0.727-0.361-1.259v0l0.37-7.679c0.026-0.532 0.185-0.932 0.478-1.199 0.293-0.266 0.693-0.388 1.198-0.363v0c0.519 0.025 0.908 0.184 1.167 0.477 0.266 0.293 0.387 0.706 0.361 1.239v0l-0.066 1.382-0.204-0.872c0.325-0.648 0.798-1.159 1.418-1.533 0.627-0.38 1.35-0.551 2.169-0.511v0c0.826 0.04 1.503 0.267 2.03 0.682 0.527 0.415 0.888 1.035 1.081 1.858v0l-0.297-0.014c0.349-0.722 0.862-1.279 1.538-1.671 0.676-0.399 1.441-0.577 2.294-0.536v0c0.826 0.04 1.494 0.236 2.004 0.589 0.51 0.346 0.879 0.856 1.106 1.531 0.228 0.668 0.318 1.507 0.269 2.517v0l-0.235 4.905c-0.026 0.532-0.185 0.939-0.48 1.219-0.3 0.273-0.71 0.397-1.229 0.372v0c-0.532-0.026-0.932-0.188-1.198-0.489-0.266-0.307-0.386-0.727-0.36-1.259v0l0.231-4.802c0.034-0.703-0.054-1.224-0.264-1.563-0.21-0.332-0.581-0.51-1.113-0.536v0c-0.621-0.03-1.113 0.162-1.475 0.576-0.369 0.413-0.572 1.019-0.611 1.818v0l-0.208 4.342c-0.026 0.532-0.185 0.939-0.48 1.218-0.3 0.273-0.71 0.397-1.229 0.372v0c-0.519-0.025-0.915-0.188-1.187-0.488-0.273-0.307-0.396-0.727-0.371-1.259v0l0.231-4.803c0.034-0.703-0.054-1.224-0.263-1.562-0.21-0.332-0.581-0.51-1.114-0.536v0c-0.621-0.03-1.113 0.162-1.475 0.576-0.369 0.413-0.572 1.019-0.611 1.818v0l-0.208 4.341c-0.053 1.113-0.623 1.643-1.709 1.591z"
                                                                            fill="#8284fa"
                                                                            data-fill-palette-color="primary"></path>
                                                                        <path
                                                                            d="M108.502 19.788v0c-0.777-0.445-1.342-0.957-1.695-1.538-0.344-0.583-0.471-1.234-0.381-1.955 0.084-0.724 0.374-1.519 0.869-2.384v0l2.436-4.252c0.272-0.474 0.6-0.759 0.985-0.854 0.379-0.098 0.794-0.018 1.244 0.24v0c0.451 0.258 0.733 0.577 0.846 0.957 0.113 0.38 0.034 0.807-0.238 1.282v0l-2.475 4.323c-0.316 0.552-0.439 1.028-0.371 1.43 0.073 0.396 0.355 0.735 0.848 1.017v0c0.54 0.309 1.09 0.372 1.651 0.19 0.565-0.189 1.027-0.597 1.387-1.226v0l2.216-3.87c0.272-0.474 0.597-0.761 0.976-0.858 0.379-0.098 0.794-0.018 1.245 0.24v0c0.469 0.268 0.756 0.591 0.864 0.967 0.107 0.376 0.025 0.802-0.247 1.276v0l-3.821 6.672c-0.554 0.967-1.287 1.189-2.2 0.666v0c-0.451-0.258-0.723-0.58-0.818-0.965-0.097-0.394-0.013-0.823 0.252-1.285v0l0.718-1.254-0.133 0.892c-0.64 0.484-1.318 0.754-2.034 0.808-0.716 0.054-1.424-0.119-2.124-0.519z"
                                                                            fill="#77d4fc"
                                                                            data-fill-palette-color="secondary"></path>
                                                                        <path
                                                                            d="M122.014 30.062v0c-0.455-0.444-0.881-0.942-1.279-1.493-0.403-0.556-0.704-1.123-0.905-1.7v0c-0.105-0.303-0.123-0.578-0.053-0.826 0.065-0.242 0.183-0.442 0.356-0.599 0.172-0.157 0.372-0.253 0.598-0.289 0.231-0.041 0.449-0.005 0.653 0.108 0.209 0.109 0.371 0.3 0.486 0.574v0c0.249 0.587 0.513 1.089 0.793 1.506 0.285 0.412 0.599 0.785 0.941 1.119v0c0.445 0.435 0.835 0.681 1.169 0.74 0.339 0.054 0.618-0.032 0.838-0.256v0c0.201-0.205 0.285-0.424 0.253-0.655-0.032-0.241-0.158-0.508-0.379-0.801v0l-1.334-1.876c-0.531-0.738-0.795-1.455-0.794-2.151 0.001-0.696 0.274-1.323 0.818-1.88v0c0.506-0.518 1.087-0.825 1.744-0.919 0.656-0.095 1.339 0.008 2.048 0.309 0.709 0.291 1.391 0.757 2.046 1.396v0c0.465 0.454 0.852 0.913 1.162 1.378 0.31 0.465 0.555 0.967 0.735 1.507v0c0.095 0.274 0.105 0.528 0.031 0.761-0.075 0.233-0.203 0.418-0.385 0.555-0.192 0.138-0.406 0.225-0.642 0.261-0.232 0.032-0.45-0.009-0.654-0.122-0.195-0.114-0.357-0.315-0.485-0.603v0c-0.175-0.476-0.371-0.882-0.588-1.219-0.212-0.341-0.447-0.637-0.706-0.89v0c-0.465-0.454-0.876-0.707-1.234-0.761-0.349-0.054-0.635 0.034-0.86 0.264v0c-0.172 0.176-0.254 0.382-0.246 0.619 0.003 0.232 0.107 0.492 0.314 0.779v0l1.334 1.876c0.565 0.771 0.859 1.498 0.881 2.179 0.022 0.671-0.25 1.298-0.818 1.88v0c-0.764 0.782-1.671 1.1-2.722 0.953-1.055-0.152-2.094-0.727-3.116-1.724z"
                                                                            fill="#77d4fc"
                                                                            data-fill-palette-color="secondary"></path>
                                                                        <path
                                                                            d="M131.955 42.902v0c-0.662-1.061-1.043-2.096-1.142-3.106-0.089-1.008 0.09-1.933 0.538-2.777 0.45-0.853 1.154-1.578 2.11-2.176v0c0.928-0.579 1.866-0.895 2.816-0.948 0.948-0.044 1.842 0.163 2.684 0.62 0.838 0.452 1.536 1.124 2.093 2.017v0c0.405 0.649 0.666 1.305 0.78 1.966 0.115 0.661 0.092 1.308-0.069 1.94-0.165 0.627-0.47 1.216-0.914 1.768-0.445 0.552-1.018 1.047-1.72 1.485v0c-0.232 0.145-0.453 0.178-0.663 0.099-0.206-0.073-0.398-0.251-0.576-0.534v0l-3.599-5.765 1.434-0.896 2.889 4.626-0.44-0.124c0.504-0.315 0.878-0.653 1.119-1.014 0.246-0.355 0.369-0.726 0.369-1.112-0.002-0.377-0.13-0.769-0.383-1.175v0c-0.282-0.452-0.627-0.772-1.035-0.961-0.408-0.189-0.86-0.248-1.357-0.18-0.499 0.078-1.024 0.289-1.575 0.633v0l-0.148 0.092c-0.928 0.579-1.476 1.224-1.645 1.934-0.169 0.71 0.014 1.494 0.55 2.351v0c0.181 0.29 0.426 0.604 0.734 0.944 0.311 0.33 0.647 0.611 1.011 0.844v0c0.316 0.197 0.52 0.42 0.611 0.669 0.097 0.246 0.102 0.48 0.016 0.703-0.081 0.219-0.218 0.406-0.412 0.56-0.198 0.148-0.433 0.23-0.704 0.246-0.272 0.017-0.556-0.064-0.852-0.242v0c-0.492-0.273-0.958-0.631-1.396-1.074-0.442-0.449-0.816-0.92-1.124-1.413z"
                                                                            fill="#77d4fc"
                                                                            data-fill-palette-color="secondary"></path>
                                                                        <path
                                                                            d="M137.295 53.977v0c-0.178-0.517-0.178-0.958 0.001-1.323 0.185-0.367 0.529-0.637 1.033-0.81v0l7.271-2.5c0.504-0.173 0.934-0.173 1.29 0.001 0.356 0.174 0.616 0.5 0.781 0.978v0c0.169 0.491 0.165 0.912-0.011 1.261-0.176 0.35-0.516 0.611-1.02 0.784v0l-1.067 0.367-0.07-0.204c0.879-0.114 1.636 0.03 2.274 0.433 0.646 0.407 1.15 1.043 1.512 1.908v0c0.144 0.334 0.146 0.625 0.008 0.875-0.129 0.254-0.418 0.465-0.866 0.634v0c-0.418 0.173-0.783 0.204-1.095 0.095-0.314-0.116-0.578-0.398-0.789-0.845v0l-0.199-0.452c-0.34-0.758-0.765-1.258-1.275-1.502-0.51-0.244-1.127-0.241-1.851 0.007v0l-3.81 1.31c-0.504 0.173-0.941 0.175-1.309 0.006-0.363-0.172-0.632-0.513-0.808-1.023z"
                                                                            fill="#77d4fc"
                                                                            data-fill-palette-color="secondary"></path>
                                                                        <path
                                                                            d="M0 76.24c0-3.264 2.646-5.909 5.909-5.909 3.264 0 5.909 2.646 5.91 5.909 0 3.264-2.646 5.909-5.91 5.91-3.264 0-5.909-2.646-5.909-5.91z"
                                                                            fill="#8284fa"
                                                                            data-fill-palette-color="primary"></path>
                                                                        <path
                                                                            d="M140.951 76.24c0-3.264 2.646-5.909 5.909-5.909 3.264 0 5.909 2.646 5.91 5.909 0 3.264-2.646 5.909-5.91 5.91-3.264 0-5.909-2.646-5.909-5.91z"
                                                                            fill="#8284fa"
                                                                            data-fill-palette-color="primary"></path>
                                                                    </g>
                                                                    <g id="text-1">
                                                                        <path
                                                                            d="M3.762 99.049v0c-0.165-0.514-0.154-0.952 0.032-1.313 0.186-0.361 0.529-0.622 1.03-0.782v0l7.235-2.317c0.501-0.161 0.928-0.15 1.28 0.032 0.344 0.177 0.593 0.506 0.747 0.987v0c0.156 0.488 0.145 0.901-0.034 1.238-0.183 0.346-0.526 0.599-1.027 0.76v0l-1.064 0.341-0.066-0.205c0.872-0.1 1.619 0.059 2.241 0.477 0.626 0.409 1.11 1.047 1.453 1.914v0c0.134 0.33 0.133 0.618-0.004 0.862-0.143 0.247-0.437 0.452-0.88 0.615v0c-0.408 0.159-0.768 0.178-1.08 0.056-0.303-0.118-0.558-0.399-0.765-0.843v0l-0.189-0.456c-0.313-0.754-0.721-1.255-1.224-1.502-0.498-0.257-1.109-0.269-1.831-0.038v0l-3.788 1.213c-0.501 0.161-0.93 0.154-1.287-0.018-0.359-0.179-0.618-0.52-0.779-1.021z"
                                                                            fill="#8284fa"
                                                                            data-fill-palette-color="primary"></path>
                                                                        <path
                                                                            d="M10.855 115.07v0c-0.392-0.665-0.615-1.339-0.668-2.022-0.053-0.683 0.054-1.301 0.322-1.856 0.268-0.555 0.679-0.995 1.233-1.321v0c0.665-0.392 1.292-0.527 1.879-0.405 0.59 0.113 1.196 0.509 1.819 1.189 0.619 0.674 1.305 1.65 2.058 2.928v0l0.578 0.98-1.431 0.844-0.567-0.963c-0.368-0.624-0.701-1.11-1.001-1.457-0.294-0.35-0.569-0.561-0.825-0.632-0.262-0.068-0.534-0.018-0.817 0.148v0c-0.342 0.201-0.553 0.488-0.635 0.861-0.079 0.364 0.015 0.773 0.282 1.226v0c0.212 0.359 0.481 0.629 0.81 0.809 0.328 0.18 0.683 0.264 1.065 0.252 0.382-0.011 0.759-0.126 1.13-0.344v0l2.119-1.249c0.542-0.319 0.852-0.668 0.93-1.047 0.087-0.377-0.042-0.859-0.389-1.449v0c-0.198-0.336-0.452-0.673-0.764-1.013-0.302-0.338-0.683-0.688-1.143-1.052v0c-0.283-0.198-0.453-0.419-0.51-0.663-0.054-0.254-0.024-0.485 0.09-0.696 0.111-0.216 0.275-0.388 0.493-0.516 0.212-0.125 0.457-0.186 0.736-0.184 0.273 0.006 0.543 0.12 0.81 0.344v0c0.57 0.442 1.048 0.89 1.434 1.344 0.39 0.46 0.712 0.905 0.965 1.335v0c0.559 0.948 0.878 1.807 0.959 2.576 0.081 0.77-0.073 1.479-0.46 2.128-0.391 0.643-1.037 1.229-1.937 1.76v0l-4.09 2.409c-0.453 0.267-0.87 0.362-1.249 0.284-0.376-0.072-0.687-0.317-0.933-0.735v0c-0.246-0.418-0.313-0.815-0.201-1.191 0.112-0.375 0.395-0.697 0.848-0.963v0l0.68-0.401-0.028 0.195c-0.46 0.176-0.911 0.231-1.353 0.167-0.448-0.061-0.863-0.225-1.243-0.494-0.383-0.274-0.716-0.649-0.996-1.126z"
                                                                            fill="#8284fa"
                                                                            data-fill-palette-color="primary"></path>
                                                                        <path
                                                                            d="M21.104 128.729v0c-0.377-0.377-0.561-0.764-0.551-1.159 0.005-0.401 0.193-0.788 0.565-1.16v0l5.372-5.371c0.372-0.372 0.756-0.558 1.153-0.558 0.387 0 0.759 0.179 1.116 0.536v0c0.362 0.362 0.541 0.735 0.536 1.116-0.005 0.391-0.193 0.773-0.565 1.146v0l-0.863 0.862 0.334-0.667c0.725-0.261 1.45-0.295 2.174-0.101 0.73 0.189 1.387 0.575 1.972 1.16v0c0.594 0.594 0.969 1.196 1.123 1.805 0.159 0.614 0.104 1.244-0.166 1.892-0.266 0.652-0.752 1.331-1.458 2.037v0l-3.436 3.435c-0.372 0.372-0.759 0.561-1.159 0.566-0.396 0.01-0.783-0.174-1.16-0.551v0c-0.362-0.362-0.539-0.742-0.529-1.138 0.005-0.401 0.193-0.788 0.565-1.16v0l3.327-3.327c0.517-0.517 0.793-0.981 0.827-1.392 0.044-0.411-0.128-0.809-0.515-1.196v0c-0.483-0.483-1.017-0.718-1.602-0.703-0.594 0.014-1.143 0.273-1.645 0.775v0l-3.117 3.117c-0.778 0.778-1.544 0.79-2.298 0.036z"
                                                                            fill="#8284fa"
                                                                            data-fill-palette-color="primary"></path>
                                                                        <path
                                                                            d="M38.631 142.53v0c-0.796-0.453-1.383-1.044-1.763-1.772-0.383-0.722-0.539-1.538-0.468-2.449 0.08-0.914 0.398-1.858 0.952-2.832v0c0.558-0.98 1.205-1.728 1.94-2.246 0.741-0.514 1.521-0.793 2.341-0.837 0.82-0.044 1.627 0.16 2.423 0.614v0c0.719 0.409 1.254 0.947 1.607 1.611 0.356 0.659 0.473 1.323 0.351 1.994v0l-0.205-0.117 2.512-4.409c0.267-0.469 0.589-0.758 0.965-0.866 0.367-0.106 0.779-0.028 1.237 0.233v0c0.451 0.257 0.731 0.574 0.839 0.95 0.111 0.386 0.032 0.813-0.235 1.282v0l-6.029 10.581c-0.261 0.457-0.584 0.741-0.969 0.852-0.38 0.114-0.792 0.044-1.237-0.209v0c-0.451-0.257-0.725-0.578-0.821-0.963-0.101-0.388-0.022-0.811 0.239-1.268v0l0.721-1.265-0.211 0.847c-0.517 0.508-1.161 0.782-1.932 0.823-0.774 0.047-1.526-0.138-2.257-0.554zM40.666 140.905v0c0.404 0.23 0.813 0.333 1.228 0.31 0.412-0.033 0.814-0.193 1.206-0.481 0.396-0.294 0.766-0.744 1.111-1.35v0c0.518-0.909 0.714-1.681 0.589-2.318-0.131-0.641-0.499-1.134-1.104-1.479v0c-0.398-0.227-0.801-0.334-1.208-0.323-0.411 0.017-0.814 0.173-1.21 0.467-0.386 0.291-0.753 0.743-1.102 1.355v0c-0.514 0.903-0.709 1.68-0.586 2.332 0.118 0.649 0.477 1.145 1.076 1.487z"
                                                                            fill="#8284fa"
                                                                            data-fill-palette-color="primary"></path>
                                                                        <path
                                                                            d="M58.255 150.388v0c-1.092-0.28-1.987-0.738-2.684-1.375-0.699-0.631-1.168-1.403-1.407-2.318-0.237-0.921-0.216-1.925 0.062-3.011v0c0.21-0.821 0.524-1.524 0.942-2.108 0.411-0.586 0.914-1.05 1.51-1.391 0.595-0.341 1.255-0.546 1.977-0.615 0.725-0.075 1.498-0.008 2.319 0.202v0c1.092 0.28 1.987 0.738 2.685 1.375 0.698 0.637 1.171 1.407 1.419 2.311 0.242 0.901 0.223 1.898-0.057 2.991v0c-0.212 0.828-0.527 1.534-0.945 2.118-0.424 0.583-0.932 1.049-1.522 1.398-0.59 0.35-1.25 0.558-1.98 0.625-0.731 0.074-1.504 0.006-2.319-0.202zM58.856 148.045v0c0.45 0.115 0.872 0.107 1.265-0.026 0.389-0.14 0.734-0.401 1.037-0.782 0.304-0.388 0.542-0.919 0.715-1.595v0c0.259-1.013 0.245-1.81-0.044-2.392-0.295-0.583-0.78-0.962-1.455-1.134v0c-0.444-0.114-0.86-0.111-1.251 0.008-0.392 0.125-0.74 0.382-1.044 0.769-0.296 0.383-0.531 0.915-0.705 1.598v0c-0.258 1.006-0.241 1.808 0.051 2.404 0.285 0.595 0.762 0.978 1.431 1.15z"
                                                                            fill="#8284fa"
                                                                            data-fill-palette-color="primary"></path>
                                                                        <path
                                                                            d="M74.662 152.445v0c-0.526 0.025-0.935-0.099-1.229-0.373-0.293-0.273-0.453-0.673-0.478-1.199v0l-0.36-7.587c-0.025-0.526 0.096-0.935 0.363-1.229 0.267-0.286 0.65-0.441 1.147-0.465v0c0.512-0.024 0.908 0.094 1.187 0.354 0.286 0.267 0.442 0.663 0.467 1.189v0l0.065 1.372-0.276-0.849c0.256-0.669 0.674-1.216 1.256-1.64 0.575-0.431 1.268-0.666 2.081-0.704v0c0.812-0.039 1.497 0.124 2.055 0.487 0.564 0.356 0.978 0.929 1.241 1.717v0l-0.297 0.014c0.279-0.745 0.733-1.342 1.363-1.789 0.628-0.454 1.362-0.701 2.202-0.741v0c0.812-0.039 1.486 0.09 2.019 0.387 0.534 0.296 0.946 0.762 1.237 1.399 0.283 0.637 0.449 1.453 0.496 2.449v0l0.23 4.854c0.025 0.526-0.092 0.938-0.352 1.238-0.266 0.3-0.655 0.462-1.167 0.486v0c-0.526 0.025-0.935-0.099-1.229-0.372-0.293-0.273-0.453-0.673-0.477-1.199v0l-0.225-4.741c-0.033-0.703-0.167-1.207-0.401-1.51-0.234-0.31-0.617-0.453-1.149-0.428v0c-0.608 0.029-1.075 0.263-1.403 0.703-0.321 0.446-0.463 1.062-0.426 1.847v0l0.204 4.291c0.025 0.526-0.092 0.938-0.352 1.237-0.266 0.3-0.655 0.462-1.167 0.487v0c-0.512 0.024-0.918-0.1-1.219-0.373-0.3-0.273-0.463-0.672-0.487-1.198v0l-0.226-4.741c-0.033-0.703-0.167-1.207-0.4-1.511-0.234-0.31-0.617-0.453-1.149-0.427v0c-0.608 0.029-1.075 0.263-1.403 0.703-0.321 0.446-0.463 1.062-0.426 1.847v0l0.204 4.29c0.052 1.099-0.454 1.674-1.519 1.725z"
                                                                            fill="#8284fa"
                                                                            data-fill-palette-color="primary"></path>
                                                                        <path
                                                                            d="M114.157 142.557v0c-0.771 0.442-1.49 0.664-2.157 0.668-0.673 0.007-1.293-0.209-1.859-0.648-0.573-0.436-1.103-1.081-1.593-1.935v0l-2.405-4.199c-0.268-0.469-0.349-0.891-0.241-1.267 0.105-0.367 0.38-0.678 0.824-0.933v0c0.451-0.258 0.864-0.341 1.24-0.249 0.385 0.095 0.712 0.376 0.98 0.844v0l2.445 4.27c0.312 0.546 0.658 0.887 1.036 1.025 0.372 0.141 0.802 0.073 1.288-0.205v0c0.528-0.302 0.855-0.742 0.982-1.319 0.121-0.573 0.004-1.168-0.349-1.785v0l-2.191-3.825c-0.268-0.469-0.349-0.891-0.241-1.267 0.111-0.371 0.388-0.683 0.833-0.938v0c0.457-0.262 0.873-0.346 1.248-0.254 0.373 0.101 0.694 0.386 0.962 0.854v0l3.775 6.592c0.547 0.955 0.369 1.69-0.532 2.207v0c-0.445 0.255-0.857 0.325-1.237 0.212-0.38-0.113-0.701-0.398-0.962-0.855v0l-0.713-1.245 0.702 0.566c0.087 0.785-0.024 1.498-0.333 2.141-0.307 0.633-0.808 1.148-1.502 1.545z"
                                                                            fill="#77d4fc"
                                                                            data-fill-palette-color="secondary"></path>
                                                                        <path
                                                                            d="M129.956 130.554v0c-0.445 0.435-0.945 0.842-1.5 1.222-0.555 0.39-1.122 0.676-1.699 0.857v0c-0.306 0.098-0.576 0.109-0.813 0.034-0.246-0.075-0.442-0.198-0.59-0.369-0.148-0.171-0.24-0.373-0.275-0.605-0.031-0.228 0.01-0.44 0.123-0.637 0.109-0.202 0.301-0.357 0.578-0.464v0c0.592-0.235 1.095-0.487 1.51-0.758 0.419-0.266 0.797-0.563 1.134-0.893v0c0.435-0.425 0.686-0.804 0.752-1.137 0.067-0.333-0.01-0.611-0.229-0.836v0c-0.201-0.205-0.417-0.295-0.649-0.269-0.237 0.031-0.502 0.151-0.795 0.361v0l-1.892 1.275c-0.74 0.504-1.454 0.747-2.14 0.729-0.686-0.018-1.299-0.303-1.839-0.855v0c-0.497-0.508-0.785-1.087-0.864-1.735-0.075-0.653 0.042-1.326 0.35-2.019 0.308-0.692 0.784-1.354 1.43-1.984v0c0.46-0.449 0.923-0.82 1.39-1.114 0.467-0.294 0.968-0.525 1.501-0.693v0c0.277-0.089 0.528-0.095 0.755-0.021 0.226 0.085 0.406 0.22 0.538 0.405 0.133 0.185 0.215 0.396 0.247 0.634 0.026 0.232-0.02 0.444-0.138 0.636-0.123 0.197-0.323 0.354-0.6 0.472v0c-0.48 0.164-0.888 0.347-1.224 0.551-0.346 0.204-0.645 0.43-0.9 0.678v0c-0.46 0.449-0.718 0.849-0.775 1.202-0.057 0.342 0.024 0.626 0.244 0.851v0c0.167 0.171 0.367 0.258 0.598 0.26 0.232 0.003 0.492-0.093 0.779-0.288v0l1.886-1.283c0.775-0.537 1.496-0.807 2.162-0.808 0.672-0.007 1.287 0.276 1.846 0.848v0c0.755 0.772 1.046 1.677 0.874 2.714-0.172 1.037-0.763 2.05-1.775 3.039z"
                                                                            fill="#77d4fc"
                                                                            data-fill-palette-color="secondary"></path>
                                                                        <path
                                                                            d="M141.608 115.585v0c-0.655 1.05-1.41 1.835-2.267 2.356-0.853 0.515-1.754 0.759-2.703 0.73-0.949-0.028-1.893-0.335-2.832-0.921v0c-0.922-0.575-1.61-1.274-2.063-2.097-0.453-0.823-0.66-1.705-0.621-2.646 0.04-0.942 0.335-1.853 0.884-2.735v0c0.402-0.644 0.87-1.157 1.407-1.539 0.534-0.392 1.116-0.653 1.746-0.783 0.626-0.125 1.281-0.111 1.967 0.042 0.682 0.16 1.368 0.454 2.058 0.885v0c0.232 0.145 0.361 0.326 0.386 0.543 0.02 0.214-0.057 0.46-0.231 0.738v0l-3.554 5.697-1.409-0.879 2.854-4.575 0.068 0.453c-0.499-0.311-0.958-0.497-1.38-0.558-0.427-0.065-0.809-0.013-1.147 0.154-0.338 0.168-0.632 0.452-0.882 0.852v0c-0.279 0.446-0.411 0.891-0.397 1.335 0.008 0.44 0.151 0.868 0.431 1.284 0.284 0.41 0.698 0.786 1.243 1.125v0l0.139 0.087c0.922 0.575 1.734 0.784 2.437 0.626 0.703-0.158 1.32-0.663 1.852-1.515v0c0.181-0.29 0.352-0.642 0.514-1.057 0.16-0.424 0.263-0.847 0.308-1.269v0c0.04-0.362 0.149-0.64 0.328-0.835 0.184-0.191 0.39-0.296 0.619-0.315 0.233-0.024 0.456 0.018 0.669 0.128 0.223 0.107 0.399 0.277 0.528 0.51 0.134 0.237 0.188 0.524 0.162 0.863v0c-0.031 0.553-0.149 1.123-0.354 1.712-0.202 0.583-0.455 1.117-0.76 1.604z"
                                                                            fill="#77d4fc"
                                                                            data-fill-palette-color="secondary"></path>
                                                                        <path
                                                                            d="M147.996 102.093v0c-0.175 0.511-0.445 0.855-0.81 1.034-0.365 0.178-0.796 0.182-1.293 0.012v0l-7.186-2.463c-0.498-0.171-0.834-0.434-1.008-0.79-0.17-0.347-0.173-0.76-0.009-1.238v0c0.166-0.485 0.422-0.809 0.767-0.973 0.354-0.168 0.779-0.166 1.277 0.005v0l1.057 0.362-0.07 0.203c-0.759-0.441-1.263-1.015-1.512-1.721-0.258-0.702-0.265-1.503-0.022-2.402v0c0.089-0.345 0.262-0.575 0.518-0.69 0.262-0.112 0.62-0.102 1.073 0.032v0c0.423 0.116 0.722 0.316 0.899 0.601 0.173 0.276 0.21 0.653 0.11 1.132v0l-0.12 0.479c-0.199 0.792-0.171 1.437 0.084 1.936 0.246 0.503 0.729 0.878 1.446 1.124v0l3.763 1.29c0.498 0.171 0.838 0.432 1.021 0.783 0.181 0.358 0.186 0.786 0.015 1.284z"
                                                                            fill="#77d4fc"
                                                                            data-fill-palette-color="secondary"></path>
                                                                    </g>
                                                                </svg>
                                                            </g>
                                                        </svg>
                                                    </g>
                                                </svg>
                                            </g>
                                            <g></g>
                                        </svg>
                                    </g>
                                </svg>
                            </g>
                            <g>
                                <path
                                    d="M182.502 45.706A76.385 76.385 0 0 1 213.018 45.706L212.442 45.706A75.808 75.808 0 0 0 183.078 45.706L182.502 45.706M182.502 201.494A76.385 76.385 0 0 0 213.018 201.494L212.442 201.494A75.808 75.808 0 0 1 183.078 201.494L182.502 201.494"
                                    fill="#8284fa" stroke="transparent"
                                    data-fill-palette-color="tertiary"></path>
                            </g>
                        </svg>
                    </g>
                    <defs></defs>
                </svg>
                <rect width="395.52" height="247.2" fill="none" stroke="none" visibility="hidden"></rect>
            </g>
        </svg>
    </g>
</svg>